<svg xmlns="http://www.w3.org/2000/svg" viewBox="0 0 538.41 93.43"><defs><style>.cls-1{fill:none;stroke:#fff;stroke-miterlimit:10;}</style></defs><title>Asset 5</title><g id="Layer_2" data-name="Layer 2"><g id="Layer_1-2" data-name="Layer 1"><path class="cls-1" d="M75.78,91.52h-.52V3.32l-37,88.84H38L1,3.32v88.2H.5V1.91H1L38.14,91.27,75.26,1.91h.52Z"/><path class="cls-1" d="M238.87,91.52h-.52l-9.6-27.14H185.23l-9.61,27.14h-.51L206.73,1.27h.52ZM228.62,63.87,207,2.16,185.35,63.87Z"/><path class="cls-1" d="M390.69,25.08c0,14.59-8.57,22-23.43,23.81L389,91.52h-.64L366.75,49a73.1,73.1,0,0,1-7.81.38H338.72V91.52h-.52V1.91h22.54C378.66,1.91,390.69,7,390.69,25.08Zm-.51,0c0-17.54-11.65-22.66-29.44-22.66h-22V48.89h20.22C378.66,48.89,390.18,42,390.18,25.08Z"/><path class="cls-1" d="M537.91,70.4c0,15.49-12.68,22.53-25.61,22.53-11,0-19.33-2.94-27-8.45l.39-.38c7.81,5.5,15.61,8.32,26.62,8.32,12.68,0,25.1-6.79,25.1-22,0-12.16-6.4-17.54-26.25-25.09C491.82,38,486.83,33,486.83,21.5c0-10.76,8.19-21,25-21,11.78,0,18.44,3.2,24.71,7.17l-.38.38c-6.41-4-12.81-7-24.33-7-16.51,0-24.45,10-24.45,20.49,0,11.26,5,16.13,24.07,23.3C531.51,52.48,537.91,58,537.91,70.4Z"/></g></g></svg>