<svg xmlns="http://www.w3.org/2000/svg" viewBox="0 0 661.07 170.55"><defs><style>.cls-1{fill:none;stroke:#000;}</style></defs><title>Asset 2</title><g id="Layer_2" data-name="Layer 2"><g id="Layer_1-2" data-name="Layer 1"><path class="cls-1" d="M152.83,165.52V10.7h-.91L81,165.52H76.89L6.17,10.7H5.49V165.52H.5V5H9.34L79.16,158.27,149,5h8.84V165.52Z"/><path class="cls-1" d="M350,165.52l-19-46H237.83l-19.72,46h-5.44L282.26,5h6.34l66.87,160.49ZM285.2,8.21l-45.56,107h89.77Z"/><path class="cls-1" d="M501.45,165.52,452.94,84.6H415.31v80.92h-5V5h44.43a103.46,103.46,0,0,1,17.91,1.59,45.33,45.33,0,0,1,16.21,6,34.55,34.55,0,0,1,11.67,12.12q4.53,7.71,4.54,20,0,11.34-4.31,18.82a36.39,36.39,0,0,1-11.11,12.12,46,46,0,0,1-15.07,6.69,67.6,67.6,0,0,1-16.21,2l48.74,81.15ZM500.09,44.7q0-10.43-4.08-17.34a30.36,30.36,0,0,0-10.77-10.88,46.31,46.31,0,0,0-15.41-5.55A99.11,99.11,0,0,0,452,9.34H415.31v71h39.22q22.22,0,33.89-9.29T500.09,44.7Z"/><path class="cls-1" d="M660.57,127a40.74,40.74,0,0,1-4,18.24,41.73,41.73,0,0,1-10.54,13.6,44.57,44.57,0,0,1-15.53,8.39,61.57,61.57,0,0,1-18.7,2.83,68.35,68.35,0,0,1-27.32-5.32A58,58,0,0,1,564,150.33l3.85-3.4a55.39,55.39,0,0,0,20.07,13.94,62.29,62.29,0,0,0,23.68,4.65,53.35,53.35,0,0,0,16.78-2.61,44.66,44.66,0,0,0,14.05-7.48,34.65,34.65,0,0,0,9.63-12A36.66,36.66,0,0,0,655.59,127q0-9.3-3.86-15.65a38.22,38.22,0,0,0-10-10.88,60.17,60.17,0,0,0-13.94-7.59q-7.82-3.06-15.75-5.55-10-3.18-18.25-6.69A55,55,0,0,1,579.54,72a35.1,35.1,0,0,1-9.3-12.24Q567,52.64,567,42.44a38.86,38.86,0,0,1,4-17.8,39,39,0,0,1,10.77-13.15,49.52,49.52,0,0,1,15.76-8.16A62.55,62.55,0,0,1,616.37.5a59.06,59.06,0,0,1,23.24,4.65,45.88,45.88,0,0,1,18,13.26l-3.86,3.4a42.8,42.8,0,0,0-16.2-12.36A51.91,51.91,0,0,0,616.15,5a57.14,57.14,0,0,0-16,2.27A45,45,0,0,0,586,14.21a35.44,35.44,0,0,0-10.2,11.68,33.87,33.87,0,0,0-3.86,16.55q0,9.29,3.4,15.75a34.46,34.46,0,0,0,9.07,11,52,52,0,0,0,12.81,7.48q7.14,3,14.62,5.44,10.2,3.41,19,6.92a67.78,67.78,0,0,1,15.53,8.5,35.57,35.57,0,0,1,10.42,12.12Q660.58,116.79,660.57,127Z"/></g></g></svg>